#N canvas 119 191 569 399 10;
#X obj -244 -77 inlet;
#X floatatom -244 -44 5 0 0 0 - - -;
#X obj -93 191 t b b;
#X floatatom -93 85 5 0 0 0 - - -;
#X obj -93 128 spigot;
#X obj -135 191 t b b;
#X floatatom -135 85 5 0 0 0 - - -;
#X obj -135 128 spigot;
#X obj -177 191 t b b;
#X floatatom -177 85 5 0 0 0 - - -;
#X obj -177 128 spigot;
#X obj -219 191 t b b;
#X floatatom -219 85 5 0 0 0 - - -;
#X obj -219 128 spigot;
#X obj -48 192 t b b;
#X floatatom -48 86 5 0 0 0 - - -;
#X obj -48 129 spigot;
#X obj 0 192 t b b;
#X floatatom 0 86 5 0 0 0 - - -;
#X obj 0 129 spigot;
#X obj -177 160 bng 15 250 50 0 empty empty empty 17 7 0 10 -262144
-1 -1;
#X obj -219 160 bng 15 250 50 0 empty empty empty 17 7 0 10 -262144
-1 -1;
#X obj -135 160 bng 15 250 50 0 empty empty empty 17 7 0 10 -262144
-1 -1;
#X obj -93 160 bng 15 250 50 0 empty empty empty 17 7 0 10 -262144
-1 -1;
#X obj -48 160 bng 15 250 50 0 empty empty empty 17 7 0 10 -262144
-1 -1;
#X obj 0 160 bng 15 250 50 0 empty empty empty 17 7 0 10 -262144 -1
-1;
#X obj -218 -16 expr if($f1>=550 && $f1<770 \, 1 \, 0) \; if($f1>=520
&& $f1<550 \, 1 \, 0) \; if($f1>=490 && $f1<520 \, 1 \, 0) \; if($f1>=460
&& $f1<490 \, 1 \, 0) \; if($f1>=420 && $f1<460 \, 1 \, 0) \; if($f1>=340
&& $f1<420 \, 1 \, 0) \;;
#X obj 0 297 outlet;
#X msg -218 213 64;
#X msg -177 213 66;
#X msg -135 213 68;
#X msg -93 213 69;
#X msg -48 214 71;
#X msg 0 215 73;
#X obj 181 193 t b b;
#X floatatom 181 87 5 0 0 0 - - -;
#X obj 181 130 spigot;
#X obj 139 193 t b b;
#X floatatom 139 87 5 0 0 0 - - -;
#X obj 139 130 spigot;
#X obj 97 193 t b b;
#X floatatom 97 87 5 0 0 0 - - -;
#X obj 97 130 spigot;
#X obj 55 193 t b b;
#X floatatom 55 87 5 0 0 0 - - -;
#X obj 55 130 spigot;
#X obj 226 194 t b b;
#X floatatom 226 88 5 0 0 0 - - -;
#X obj 226 131 spigot;
#X obj 274 194 t b b;
#X floatatom 274 88 5 0 0 0 - - -;
#X obj 274 131 spigot;
#X obj 97 162 bng 15 250 50 0 empty empty empty 17 7 0 10 -262144 -1
-1;
#X obj 55 162 bng 15 250 50 0 empty empty empty 17 7 0 10 -262144 -1
-1;
#X obj 139 162 bng 15 250 50 0 empty empty empty 17 7 0 10 -262144
-1 -1;
#X obj 181 162 bng 15 250 50 0 empty empty empty 17 7 0 10 -262144
-1 -1;
#X obj 226 162 bng 15 250 50 0 empty empty empty 17 7 0 10 -262144
-1 -1;
#X obj 274 162 bng 15 250 50 0 empty empty empty 17 7 0 10 -262144
-1 -1;
#X obj 56 -14 expr if($f1>=550 && $f1<770 \, 1 \, 0) \; if($f1>=520
&& $f1<550 \, 1 \, 0) \; if($f1>=490 && $f1<520 \, 1 \, 0) \; if($f1>=460
&& $f1<490 \, 1 \, 0) \; if($f1>=420 && $f1<460 \, 1 \, 0) \; if($f1>=340
&& $f1<420 \, 1 \, 0) \;;
#X msg 274 217 73;
#X obj 35 -77 inlet;
#X floatatom 35 -52 5 0 0 0 - - -;
#X obj 274 297 outlet;
#X msg 56 215 73;
#X msg 97 215 75;
#X msg 139 215 77;
#X msg 181 215 78;
#X msg 226 216 80;
#X connect 0 0 1 0;
#X connect 1 0 26 0;
#X connect 2 0 31 0;
#X connect 3 0 4 1;
#X connect 3 0 4 0;
#X connect 4 0 23 0;
#X connect 5 0 30 0;
#X connect 6 0 7 1;
#X connect 6 0 7 0;
#X connect 7 0 22 0;
#X connect 8 0 29 0;
#X connect 9 0 10 1;
#X connect 9 0 10 0;
#X connect 10 0 20 0;
#X connect 11 0 28 0;
#X connect 12 0 13 1;
#X connect 12 0 13 0;
#X connect 13 0 21 0;
#X connect 14 0 32 0;
#X connect 15 0 16 1;
#X connect 15 0 16 0;
#X connect 16 0 24 0;
#X connect 17 0 33 0;
#X connect 18 0 19 1;
#X connect 18 0 19 0;
#X connect 19 0 25 0;
#X connect 20 0 8 0;
#X connect 21 0 11 0;
#X connect 22 0 5 0;
#X connect 23 0 2 0;
#X connect 24 0 14 0;
#X connect 25 0 17 0;
#X connect 26 0 12 0;
#X connect 26 1 9 0;
#X connect 26 2 6 0;
#X connect 26 3 3 0;
#X connect 26 4 15 0;
#X connect 26 5 18 0;
#X connect 28 0 27 0;
#X connect 29 0 27 0;
#X connect 30 0 27 0;
#X connect 31 0 27 0;
#X connect 32 0 27 0;
#X connect 33 0 27 0;
#X connect 34 0 66 0;
#X connect 35 0 36 1;
#X connect 35 0 36 0;
#X connect 36 0 55 0;
#X connect 37 0 65 0;
#X connect 38 0 39 1;
#X connect 38 0 39 0;
#X connect 39 0 54 0;
#X connect 40 0 64 0;
#X connect 41 0 42 1;
#X connect 41 0 42 0;
#X connect 42 0 52 0;
#X connect 43 0 63 0;
#X connect 44 0 45 1;
#X connect 44 0 45 0;
#X connect 45 0 53 0;
#X connect 46 0 67 0;
#X connect 47 0 48 1;
#X connect 47 0 48 0;
#X connect 48 0 56 0;
#X connect 49 0 59 0;
#X connect 50 0 51 1;
#X connect 50 0 51 0;
#X connect 51 0 57 0;
#X connect 52 0 40 0;
#X connect 53 0 43 0;
#X connect 54 0 37 0;
#X connect 55 0 34 0;
#X connect 56 0 46 0;
#X connect 57 0 49 0;
#X connect 58 0 44 0;
#X connect 58 1 41 0;
#X connect 58 2 38 0;
#X connect 58 3 35 0;
#X connect 58 4 47 0;
#X connect 58 5 50 0;
#X connect 59 0 62 0;
#X connect 60 0 61 0;
#X connect 61 0 58 0;
#X connect 63 0 62 0;
#X connect 64 0 62 0;
#X connect 65 0 62 0;
#X connect 66 0 62 0;
#X connect 67 0 62 0;
