#N canvas 484 119 696 567 10;
#X obj -94 236 r velocity;
#X obj -179 53 knob 32 32 34 700 0 0 velocity empty velocidad_de_nota
0 -8 0 8 -262144 -1 -1 1457 1;
#X obj 15 47 knob 32 32 200 700 0 0 note_duration empty duracion_de_nota
0 -8 0 8 -262144 -1 -1 0 1;
#X floatatom -76 258 5 0 0 0 - - -;
#X obj -254 -37 inlet;
#X obj -65 -37 inlet;
#X obj -137 319 noteout 2;
#X obj -204 219 r velocity;
#X floatatom -186 240 5 0 0 0 - - -;
#X obj -254 319 noteout 1;
#X floatatom -254 88 5 0 0 0 - - -;
#X msg 634 -28 Mayor;
#X msg 634 4 4 7;
#X obj 634 37 s acorde;
#X msg 711 3 3 7;
#X msg 711 -28 menor;
#X obj 711 35 s acorde;
#X obj 673 191 r acorde;
#X obj 673 222 unpack f f;
#X obj 673 252 s nota2;
#X obj 730 252 s nota3;
#X obj 837 116 r nota2;
#X obj 837 136 r nota3;
#X obj 767 292 + 4;
#X obj 807 292 + 7;
#X obj 641 135 s acorde;
#X obj 718 133 s acorde;
#X msg 641 70 aument;
#X msg 718 70 dian;
#X floatatom 767 319 5 0 0 0 - - -;
#X floatatom 807 319 5 0 0 0 - - -;
#X msg 641 102 4 8;
#X msg 718 101 3 6;
#X floatatom -65 88 5 0 0 0 - - -;
#X obj -108 182 parchescalaD;
#N canvas 766 22 517 785 escalapentatonica 0;
#X obj -116 383 t b b;
#X floatatom -81 267 5 0 0 0 - - -;
#X obj -81 310 spigot;
#X obj -715 361 t b b;
#X floatatom -711 263 5 0 0 0 - - -;
#X obj -711 306 spigot;
#X obj -847 375 t b b;
#X floatatom -847 253 5 0 0 0 - - -;
#X obj -847 296 spigot;
#X obj -1014 368 t b b;
#X floatatom -1014 254 5 0 0 0 - - -;
#X obj -1014 297 spigot;
#X obj -15 383 t b b;
#X floatatom -39 267 5 0 0 0 - - -;
#X obj -39 310 spigot;
#X obj 78 383 t b b;
#X floatatom 4 267 5 0 0 0 - - -;
#X obj 4 310 spigot;
#X obj -847 344 bng 15 250 50 0 empty empty empty 17 7 0 10 -262144
-1 -1;
#X obj -1014 337 bng 15 250 50 0 empty empty empty 17 7 0 10 -262144
-1 -1;
#X obj -712 330 bng 15 250 50 0 empty empty empty 17 7 0 10 -262144
-1 -1;
#X obj -116 352 bng 15 250 50 0 empty empty empty 17 7 0 10 -262144
-1 -1;
#X obj -15 351 bng 15 250 50 0 empty empty empty 17 7 0 10 -262144
-1 -1;
#X obj 78 351 bng 15 250 50 0 empty empty empty 17 7 0 10 -262144 -1
-1;
#X obj 4 480 outlet;
#X obj -218 9 inlet;
#X floatatom -218 35 5 0 0 0 - - -;
#X obj 255 373 t b b;
#X floatatom 255 267 5 0 0 0 - - -;
#X obj 255 310 spigot;
#X obj 213 373 t b b;
#X floatatom 213 267 5 0 0 0 - - -;
#X obj 213 310 spigot;
#X obj 171 373 t b b;
#X floatatom 171 267 5 0 0 0 - - -;
#X obj 171 310 spigot;
#X obj 129 373 t b b;
#X floatatom 129 267 5 0 0 0 - - -;
#X obj 129 310 spigot;
#X obj 297 373 t b b;
#X floatatom 297 267 5 0 0 0 - - -;
#X obj 297 310 spigot;
#X obj 340 373 t b b;
#X floatatom 340 267 5 0 0 0 - - -;
#X obj 340 310 spigot;
#X obj 171 342 bng 15 250 50 0 empty empty empty 17 7 0 10 -262144
-1 -1;
#X obj 129 342 bng 15 250 50 0 empty empty empty 17 7 0 10 -262144
-1 -1;
#X obj 213 342 bng 15 250 50 0 empty empty empty 17 7 0 10 -262144
-1 -1;
#X obj 255 342 bng 15 250 50 0 empty empty empty 17 7 0 10 -262144
-1 -1;
#X obj 297 341 bng 15 250 50 0 empty empty empty 17 7 0 10 -262144
-1 -1;
#X obj 340 341 bng 15 250 50 0 empty empty empty 17 7 0 10 -262144
-1 -1;
#X obj 340 480 outlet;
#X obj 131 28 inlet;
#X floatatom 131 54 5 0 0 0 - - -;
#X msg 130 395 60;
#X msg 171 395 62;
#X msg 213 395 64;
#X msg 255 395 67;
#X msg 297 395 69;
#X msg 340 396 72;
#X obj 131 83 expr if($f1>=800 && $f1<900 \, 1 \, 0) \; if($f1>=700
&& $f1<800 \, 1 \, 0) \; if($f1>=600 && $f1<700 \, 1 \, 0) \; if($f1>=500
&& $f1<600 \, 1 \, 0) \; if($f1>=400 && $f1<500 \, 1 \, 0) \; if($f1>=300
&& $f1<400 \, 1 \, 0) \; if($f1>=200 && $f1<300 \, 1 \, 0) \; if($f1>=100
&& $f1<200 \, 1 \, 0) \;;
#X obj 389 374 t b b;
#X floatatom 389 268 5 0 0 0 - - -;
#X obj 389 311 spigot;
#X obj 432 374 t b b;
#X floatatom 432 268 5 0 0 0 - - -;
#X obj 432 311 spigot;
#X obj 389 342 bng 15 250 50 0 empty empty empty 17 7 0 10 -262144
-1 -1;
#X obj 432 342 bng 15 250 50 0 empty empty empty 17 7 0 10 -262144
-1 -1;
#X msg 389 396 74;
#X msg 432 397 76;
#X msg -177 405 60;
#X msg -936 397 34;
#X msg -906 397 37;
#X msg -877 397 40;
#X msg -847 397 41;
#X msg -801 395 43;
#X msg -770 395 46;
#X msg -740 395 48;
#X msg -710 395 51;
#X msg -680 395 55;
#X obj -193 77 expr if($f1>=7 && $f1<8 \, 1 \, 0) \; if($f1>=6 && $f1<7
\, 1 \, 0) \; if($f1>=5 && $f1<6 \, 1 \, 0) \; if($f1>=3 && $f1<4 \,
1 \, 0) \; if($f1>=2 && $f1<3 \, 1 \, 0) \;;
#X obj -936 478 change;
#X obj -866 465 change;
#X obj -826 505 change;
#X obj -760 527 change;
#X obj -402 92 expr if($f1>=5 && $f1<7 \, 1 \, 0) \; if($f1>=4 && $f1<5
\, 1 \, 0) \; if($f1>=2 && $f1<3 \, 1 \, 0) \;;
#X msg -75 406 72;
#X msg -45 406 74;
#X msg -15 405 78;
#X msg 18 406 82;
#X msg 48 406 84;
#X msg 78 406 87;
#X msg -147 405 64;
#X msg -116 405 67;
#X msg -1080 408 49;
#X msg -1048 407 54;
#X msg -1014 408 57;
#X msg -983 408 59;
#X obj -497 351 t b b;
#X floatatom -462 235 5 0 0 0 - - -;
#X obj -462 278 spigot;
#X obj -396 351 t b b;
#X floatatom -420 235 5 0 0 0 - - -;
#X obj -420 278 spigot;
#X obj -303 351 t b b;
#X floatatom -377 235 5 0 0 0 - - -;
#X obj -377 278 spigot;
#X obj -497 320 bng 15 250 50 0 empty empty empty 17 7 0 10 -262144
-1 -1;
#X obj -396 319 bng 15 250 50 0 empty empty empty 17 7 0 10 -262144
-1 -1;
#X obj -303 319 bng 15 250 50 0 empty empty empty 17 7 0 10 -262144
-1 -1;
#X msg -333 374 84;
#X msg -303 374 87;
#X msg -558 373 65;
#X msg -497 373 72;
#X msg -528 369 68;
#X msg -456 374 70;
#X msg -426 374 73;
#X msg -396 373 77;
#X msg -363 374 82;
#X obj -664 119 expr if($f1>=280 && $f1<330 \, 1 \, 0) \; if($f1>=250
&& $f1<280 \, 1 \, 0) \; if($f1>=100 && $f1<230 \, 1 \, 0) \;;
#X connect 0 0 94 0;
#X connect 0 0 93 0;
#X connect 0 0 71 0;
#X connect 1 0 2 1;
#X connect 1 0 2 0;
#X connect 2 0 21 0;
#X connect 3 0 79 0;
#X connect 3 0 78 0;
#X connect 3 0 77 0;
#X connect 3 0 76 0;
#X connect 3 0 80 0;
#X connect 4 0 5 1;
#X connect 4 0 5 0;
#X connect 5 0 20 0;
#X connect 6 0 75 0;
#X connect 6 0 74 0;
#X connect 6 0 73 0;
#X connect 6 0 72 0;
#X connect 7 0 8 1;
#X connect 7 0 8 0;
#X connect 8 0 18 0;
#X connect 9 0 97 0;
#X connect 9 0 96 0;
#X connect 9 0 95 0;
#X connect 9 0 98 0;
#X connect 10 0 11 1;
#X connect 10 0 11 0;
#X connect 11 0 19 0;
#X connect 12 0 89 0;
#X connect 12 0 88 0;
#X connect 12 0 87 0;
#X connect 13 0 14 1;
#X connect 13 0 14 0;
#X connect 14 0 22 0;
#X connect 15 0 92 0;
#X connect 15 0 91 0;
#X connect 15 0 90 0;
#X connect 16 0 17 1;
#X connect 16 0 17 0;
#X connect 17 0 23 0;
#X connect 18 0 6 0;
#X connect 19 0 9 0;
#X connect 20 0 3 0;
#X connect 21 0 0 0;
#X connect 22 0 12 0;
#X connect 23 0 15 0;
#X connect 25 0 26 0;
#X connect 26 0 120 0;
#X connect 27 0 57 0;
#X connect 28 0 29 1;
#X connect 28 0 29 0;
#X connect 29 0 48 0;
#X connect 30 0 56 0;
#X connect 31 0 32 1;
#X connect 31 0 32 0;
#X connect 32 0 47 0;
#X connect 33 0 55 0;
#X connect 34 0 35 1;
#X connect 34 0 35 0;
#X connect 35 0 45 0;
#X connect 36 0 54 0;
#X connect 37 0 38 1;
#X connect 37 0 38 0;
#X connect 38 0 46 0;
#X connect 39 0 58 0;
#X connect 40 0 41 1;
#X connect 40 0 41 0;
#X connect 41 0 49 0;
#X connect 42 0 59 0;
#X connect 43 0 44 1;
#X connect 43 0 44 0;
#X connect 44 0 50 0;
#X connect 45 0 33 0;
#X connect 46 0 36 0;
#X connect 47 0 30 0;
#X connect 48 0 27 0;
#X connect 49 0 39 0;
#X connect 50 0 42 0;
#X connect 52 0 53 0;
#X connect 53 0 60 0;
#X connect 54 0 51 0;
#X connect 55 0 51 0;
#X connect 56 0 51 0;
#X connect 57 0 51 0;
#X connect 58 0 51 0;
#X connect 59 0 51 0;
#X connect 60 0 37 0;
#X connect 60 1 34 0;
#X connect 60 2 31 0;
#X connect 60 3 28 0;
#X connect 60 4 40 0;
#X connect 60 5 43 0;
#X connect 60 6 62 0;
#X connect 60 7 65 0;
#X connect 61 0 69 0;
#X connect 62 0 63 1;
#X connect 62 0 63 0;
#X connect 63 0 67 0;
#X connect 64 0 70 0;
#X connect 65 0 66 1;
#X connect 65 0 66 0;
#X connect 66 0 68 0;
#X connect 67 0 61 0;
#X connect 68 0 64 0;
#X connect 69 0 51 0;
#X connect 70 0 51 0;
#X connect 71 0 24 0;
#X connect 72 0 82 0;
#X connect 73 0 83 0;
#X connect 74 0 84 0;
#X connect 75 0 85 0;
#X connect 76 0 82 0;
#X connect 77 0 83 0;
#X connect 78 0 84 0;
#X connect 79 0 85 0;
#X connect 81 0 1 0;
#X connect 81 1 13 0;
#X connect 81 2 16 0;
#X connect 82 0 24 0;
#X connect 83 0 24 0;
#X connect 84 0 24 0;
#X connect 85 0 24 0;
#X connect 87 0 24 0;
#X connect 88 0 24 0;
#X connect 89 0 24 0;
#X connect 90 0 24 0;
#X connect 91 0 24 0;
#X connect 92 0 24 0;
#X connect 93 0 24 0;
#X connect 94 0 24 0;
#X connect 95 0 82 0;
#X connect 96 0 83 0;
#X connect 97 0 84 0;
#X connect 98 0 85 0;
#X connect 99 0 114 0;
#X connect 99 0 115 0;
#X connect 99 0 113 0;
#X connect 100 0 101 1;
#X connect 100 0 101 0;
#X connect 101 0 108 0;
#X connect 102 0 118 0;
#X connect 102 0 117 0;
#X connect 102 0 116 0;
#X connect 103 0 104 1;
#X connect 103 0 104 0;
#X connect 104 0 109 0;
#X connect 105 0 112 0;
#X connect 105 0 111 0;
#X connect 105 0 119 0;
#X connect 106 0 107 1;
#X connect 106 0 107 0;
#X connect 107 0 110 0;
#X connect 108 0 99 0;
#X connect 109 0 102 0;
#X connect 110 0 105 0;
#X connect 111 0 24 0;
#X connect 112 0 24 0;
#X connect 113 0 24 0;
#X connect 114 0 24 0;
#X connect 115 0 24 0;
#X connect 116 0 24 0;
#X connect 117 0 24 0;
#X connect 118 0 24 0;
#X connect 119 0 24 0;
#X connect 120 0 100 0;
#X connect 120 1 103 0;
#X connect 120 2 106 0;
#X restore -254 181 pd escalapentatonica;
#X floatatom -4 147 5 0 0 0 - - -;
#X obj -4 121 / 8;
#N canvas 371 57 443 489 parchedrum 0;
#X obj 211 253 t b b;
#X floatatom 211 147 5 0 0 0 - - -;
#X obj 211 190 spigot;
#X obj 169 253 t b b;
#X floatatom 169 147 5 0 0 0 - - -;
#X obj 169 190 spigot;
#X obj 127 253 t b b;
#X floatatom 127 147 5 0 0 0 - - -;
#X obj 127 190 spigot;
#X obj 85 253 t b b;
#X floatatom 85 147 5 0 0 0 - - -;
#X obj 85 190 spigot;
#X obj 256 254 t b b;
#X floatatom 256 148 5 0 0 0 - - -;
#X obj 256 191 spigot;
#X obj 304 254 t b b;
#X floatatom 304 148 5 0 0 0 - - -;
#X obj 304 191 spigot;
#X obj 127 222 bng 15 250 50 0 empty empty empty 17 7 0 10 -262144
-1 -1;
#X obj 85 222 bng 15 250 50 0 empty empty empty 17 7 0 10 -262144 -1
-1;
#X obj 169 222 bng 15 250 50 0 empty empty empty 17 7 0 10 -262144
-1 -1;
#X obj 211 222 bng 15 250 50 0 empty empty empty 17 7 0 10 -262144
-1 -1;
#X obj 256 222 bng 15 250 50 0 empty empty empty 17 7 0 10 -262144
-1 -1;
#X obj 304 222 bng 15 250 50 0 empty empty empty 17 7 0 10 -262144
-1 -1;
#X obj 85 -87 inlet;
#X floatatom 85 -62 5 0 0 0 - - -;
#X obj 282 372 outlet;
#X obj 85 -20 expr if($f1>=800 && $f1<900 \, 1 \, 0) \; if($f1>=700
&& $f1<800 \, 1 \, 0) \; if($f1>=600 && $f1<700 \, 1 \, 0) \; if($f1>=500
&& $f1<600 \, 1 \, 0) \; if($f1>=400 && $f1<500 \, 1 \, 0) \; if($f1>=300
&& $f1<400 \, 1 \, 0) \; if($f1>=200 && $f1<300 \, 1 \, 0) \; if($f1>=100
&& $f1<200 \, 1 \, 0) \;;
#X obj 350 256 t b b;
#X floatatom 350 150 5 0 0 0 - - -;
#X obj 350 193 spigot;
#X obj 398 256 t b b;
#X floatatom 398 150 5 0 0 0 - - -;
#X obj 398 193 spigot;
#X obj 350 224 bng 15 250 50 0 empty empty empty 17 7 0 10 -262144
-1 -1;
#X obj 398 224 bng 15 250 50 0 empty empty empty 17 7 0 10 -262144
-1 -1;
#X msg 85 275 40;
#X msg 127 275 41;
#X msg 169 275 42;
#X msg 209 275 43;
#X msg 256 276 44;
#X msg 304 277 45;
#X msg 350 278 46;
#X msg 398 279 47;
#X connect 0 0 39 0;
#X connect 1 0 2 1;
#X connect 1 0 2 0;
#X connect 2 0 21 0;
#X connect 3 0 38 0;
#X connect 4 0 5 1;
#X connect 4 0 5 0;
#X connect 5 0 20 0;
#X connect 6 0 37 0;
#X connect 7 0 8 1;
#X connect 7 0 8 0;
#X connect 8 0 18 0;
#X connect 9 0 36 0;
#X connect 10 0 11 1;
#X connect 10 0 11 0;
#X connect 11 0 19 0;
#X connect 12 0 40 0;
#X connect 13 0 14 1;
#X connect 13 0 14 0;
#X connect 14 0 22 0;
#X connect 15 0 41 0;
#X connect 16 0 17 1;
#X connect 16 0 17 0;
#X connect 17 0 23 0;
#X connect 18 0 6 0;
#X connect 19 0 9 0;
#X connect 20 0 3 0;
#X connect 21 0 0 0;
#X connect 22 0 12 0;
#X connect 23 0 15 0;
#X connect 24 0 25 0;
#X connect 25 0 27 0;
#X connect 27 0 10 0;
#X connect 27 1 7 0;
#X connect 27 2 4 0;
#X connect 27 3 1 0;
#X connect 27 4 13 0;
#X connect 27 5 16 0;
#X connect 27 6 29 0;
#X connect 27 7 32 0;
#X connect 28 0 42 0;
#X connect 29 0 30 1;
#X connect 29 0 30 0;
#X connect 30 0 34 0;
#X connect 31 0 43 0;
#X connect 32 0 33 1;
#X connect 32 0 33 0;
#X connect 33 0 35 0;
#X connect 34 0 28 0;
#X connect 35 0 31 0;
#X connect 36 0 26 0;
#X connect 37 0 26 0;
#X connect 38 0 26 0;
#X connect 39 0 26 0;
#X connect 40 0 26 0;
#X connect 41 0 26 0;
#X connect 42 0 26 0;
#X connect 43 0 26 0;
#X restore 113 173 pd parchedrum;
#X obj 193 53 knob 32 32 200 700 0 0 note_duration empty duracion_de_nota
0 -8 0 8 -262144 -1 -1 0 1;
#X obj 113 -31 inlet;
#X floatatom 113 94 5 0 0 0 - - -;
#X obj 156 236 r velocity;
#X floatatom 174 258 5 0 0 0 - - -;
#X obj 113 319 noteout 3;
#X obj 299 -35 inlet;
#X floatatom 299 90 5 0 0 0 - - -;
#X obj 342 232 r velocity;
#N canvas 990 22 472 802 parchedrum2 1;
#X obj 45 -67 inlet;
#X floatatom 45 -42 5 0 0 0 - - -;
#X obj 177 302 t b b;
#X floatatom 177 196 5 0 0 0 - - -;
#X obj 177 239 spigot;
#X obj 135 302 t b b;
#X floatatom 135 196 5 0 0 0 - - -;
#X obj 135 239 spigot;
#X obj 93 302 t b b;
#X floatatom 93 196 5 0 0 0 - - -;
#X obj 93 239 spigot;
#X obj 51 302 t b b;
#X floatatom 51 196 5 0 0 0 - - -;
#X obj 51 239 spigot;
#X obj 219 302 t b b;
#X floatatom 219 196 5 0 0 0 - - -;
#X obj 219 239 spigot;
#X obj 262 302 t b b;
#X floatatom 262 196 5 0 0 0 - - -;
#X obj 262 239 spigot;
#X obj 93 271 bng 15 250 50 0 empty empty empty 17 7 0 10 -262144 -1
-1;
#X obj 51 271 bng 15 250 50 0 empty empty empty 17 7 0 10 -262144 -1
-1;
#X obj 135 271 bng 15 250 50 0 empty empty empty 17 7 0 10 -262144
-1 -1;
#X obj 177 271 bng 15 250 50 0 empty empty empty 17 7 0 10 -262144
-1 -1;
#X obj 219 270 bng 15 250 50 0 empty empty empty 17 7 0 10 -262144
-1 -1;
#X obj 262 270 bng 15 250 50 0 empty empty empty 17 7 0 10 -262144
-1 -1;
#X obj 262 409 outlet;
#X msg 52 324 60;
#X msg 93 324 62;
#X msg 135 324 64;
#X msg 177 324 67;
#X msg 219 324 69;
#X msg 262 325 72;
#X obj 53 12 expr if($f1>=800 && $f1<900 \, 1 \, 0) \; if($f1>=700
&& $f1<800 \, 1 \, 0) \; if($f1>=600 && $f1<700 \, 1 \, 0) \; if($f1>=500
&& $f1<600 \, 1 \, 0) \; if($f1>=400 && $f1<500 \, 1 \, 0) \; if($f1>=300
&& $f1<400 \, 1 \, 0) \; if($f1>=200 && $f1<300 \, 1 \, 0) \; if($f1>=100
&& $f1<200 \, 1 \, 0) \;;
#X obj 311 303 t b b;
#X floatatom 311 197 5 0 0 0 - - -;
#X obj 311 240 spigot;
#X obj 354 303 t b b;
#X floatatom 354 197 5 0 0 0 - - -;
#X obj 354 240 spigot;
#X obj 311 271 bng 15 250 50 0 empty empty empty 17 7 0 10 -262144
-1 -1;
#X obj 354 271 bng 15 250 50 0 empty empty empty 17 7 0 10 -262144
-1 -1;
#X msg 311 325 74;
#X msg 354 326 76;
#X connect 0 0 1 0;
#X connect 1 0 33 0;
#X connect 2 0 30 0;
#X connect 3 0 4 1;
#X connect 3 0 4 0;
#X connect 4 0 23 0;
#X connect 5 0 29 0;
#X connect 6 0 7 1;
#X connect 6 0 7 0;
#X connect 7 0 22 0;
#X connect 8 0 28 0;
#X connect 9 0 10 1;
#X connect 9 0 10 0;
#X connect 10 0 20 0;
#X connect 11 0 27 0;
#X connect 12 0 13 1;
#X connect 12 0 13 0;
#X connect 13 0 21 0;
#X connect 14 0 31 0;
#X connect 15 0 16 1;
#X connect 15 0 16 0;
#X connect 16 0 24 0;
#X connect 17 0 32 0;
#X connect 18 0 19 1;
#X connect 18 0 19 0;
#X connect 19 0 25 0;
#X connect 20 0 8 0;
#X connect 21 0 11 0;
#X connect 22 0 5 0;
#X connect 23 0 2 0;
#X connect 24 0 14 0;
#X connect 25 0 17 0;
#X connect 27 0 26 0;
#X connect 28 0 26 0;
#X connect 29 0 26 0;
#X connect 30 0 26 0;
#X connect 31 0 26 0;
#X connect 32 0 26 0;
#X connect 33 0 12 0;
#X connect 33 1 9 0;
#X connect 33 2 6 0;
#X connect 33 3 3 0;
#X connect 33 4 15 0;
#X connect 33 5 18 0;
#X connect 33 6 35 0;
#X connect 33 7 38 0;
#X connect 34 0 42 0;
#X connect 35 0 36 1;
#X connect 35 0 36 0;
#X connect 36 0 40 0;
#X connect 37 0 43 0;
#X connect 38 0 39 1;
#X connect 38 0 39 0;
#X connect 39 0 41 0;
#X connect 40 0 34 0;
#X connect 41 0 37 0;
#X connect 42 0 26 0;
#X connect 43 0 26 0;
#X restore 299 169 pd parchedrum2;
#X obj 305 356 noteout 4;
#X obj 299 281 makenote 64 1380;
#X obj -137 285 makenote 64 2760;
#X obj 113 285 makenote 64 2760;
#X obj -254 279 makenote 64 2087;
#X obj 463 -36 inlet;
#X floatatom 463 89 5 0 0 0 - - -;
#X obj 506 231 r velocity;
#N canvas 990 22 472 802 parchedrum2 0;
#X obj 45 -67 inlet;
#X floatatom 45 -42 5 0 0 0 - - -;
#X obj 177 302 t b b;
#X floatatom 177 196 5 0 0 0 - - -;
#X obj 177 239 spigot;
#X obj 135 302 t b b;
#X floatatom 135 196 5 0 0 0 - - -;
#X obj 135 239 spigot;
#X obj 93 302 t b b;
#X floatatom 93 196 5 0 0 0 - - -;
#X obj 93 239 spigot;
#X obj 51 302 t b b;
#X floatatom 51 196 5 0 0 0 - - -;
#X obj 51 239 spigot;
#X obj 219 302 t b b;
#X floatatom 219 196 5 0 0 0 - - -;
#X obj 219 239 spigot;
#X obj 262 302 t b b;
#X floatatom 262 196 5 0 0 0 - - -;
#X obj 262 239 spigot;
#X obj 93 271 bng 15 250 50 0 empty empty empty 17 7 0 10 -262144 -1
-1;
#X obj 51 271 bng 15 250 50 0 empty empty empty 17 7 0 10 -262144 -1
-1;
#X obj 135 271 bng 15 250 50 0 empty empty empty 17 7 0 10 -262144
-1 -1;
#X obj 177 271 bng 15 250 50 0 empty empty empty 17 7 0 10 -262144
-1 -1;
#X obj 219 270 bng 15 250 50 0 empty empty empty 17 7 0 10 -262144
-1 -1;
#X obj 262 270 bng 15 250 50 0 empty empty empty 17 7 0 10 -262144
-1 -1;
#X obj 262 409 outlet;
#X msg 52 324 60;
#X msg 93 324 62;
#X msg 135 324 64;
#X msg 177 324 67;
#X msg 219 324 69;
#X msg 262 325 72;
#X obj 53 12 expr if($f1>=800 && $f1<900 \, 1 \, 0) \; if($f1>=700
&& $f1<800 \, 1 \, 0) \; if($f1>=600 && $f1<700 \, 1 \, 0) \; if($f1>=500
&& $f1<600 \, 1 \, 0) \; if($f1>=400 && $f1<500 \, 1 \, 0) \; if($f1>=300
&& $f1<400 \, 1 \, 0) \; if($f1>=200 && $f1<300 \, 1 \, 0) \; if($f1>=100
&& $f1<200 \, 1 \, 0) \;;
#X obj 311 303 t b b;
#X floatatom 311 197 5 0 0 0 - - -;
#X obj 311 240 spigot;
#X obj 354 303 t b b;
#X floatatom 354 197 5 0 0 0 - - -;
#X obj 354 240 spigot;
#X obj 311 271 bng 15 250 50 0 empty empty empty 17 7 0 10 -262144
-1 -1;
#X obj 354 271 bng 15 250 50 0 empty empty empty 17 7 0 10 -262144
-1 -1;
#X msg 311 325 74;
#X msg 354 326 76;
#X connect 0 0 1 0;
#X connect 1 0 33 0;
#X connect 2 0 30 0;
#X connect 3 0 4 1;
#X connect 3 0 4 0;
#X connect 4 0 23 0;
#X connect 5 0 29 0;
#X connect 6 0 7 1;
#X connect 6 0 7 0;
#X connect 7 0 22 0;
#X connect 8 0 28 0;
#X connect 9 0 10 1;
#X connect 9 0 10 0;
#X connect 10 0 20 0;
#X connect 11 0 27 0;
#X connect 12 0 13 1;
#X connect 12 0 13 0;
#X connect 13 0 21 0;
#X connect 14 0 31 0;
#X connect 15 0 16 1;
#X connect 15 0 16 0;
#X connect 16 0 24 0;
#X connect 17 0 32 0;
#X connect 18 0 19 1;
#X connect 18 0 19 0;
#X connect 19 0 25 0;
#X connect 20 0 8 0;
#X connect 21 0 11 0;
#X connect 22 0 5 0;
#X connect 23 0 2 0;
#X connect 24 0 14 0;
#X connect 25 0 17 0;
#X connect 27 0 26 0;
#X connect 28 0 26 0;
#X connect 29 0 26 0;
#X connect 30 0 26 0;
#X connect 31 0 26 0;
#X connect 32 0 26 0;
#X connect 33 0 12 0;
#X connect 33 1 9 0;
#X connect 33 2 6 0;
#X connect 33 3 3 0;
#X connect 33 4 15 0;
#X connect 33 5 18 0;
#X connect 33 6 35 0;
#X connect 33 7 38 0;
#X connect 34 0 42 0;
#X connect 35 0 36 1;
#X connect 35 0 36 0;
#X connect 36 0 40 0;
#X connect 37 0 43 0;
#X connect 38 0 39 1;
#X connect 38 0 39 0;
#X connect 39 0 41 0;
#X connect 40 0 34 0;
#X connect 41 0 37 0;
#X connect 42 0 26 0;
#X connect 43 0 26 0;
#X restore 463 168 pd parchedrum2;
#X obj 469 355 noteout 4;
#X obj 463 280 makenote 64 1380;
#X connect 0 0 3 0;
#X connect 0 0 51 1;
#X connect 4 0 1 0;
#X connect 4 0 10 0;
#X connect 5 0 2 0;
#X connect 5 0 33 0;
#X connect 7 0 8 0;
#X connect 7 0 53 1;
#X connect 10 0 35 0;
#X connect 11 0 12 0;
#X connect 12 0 13 0;
#X connect 14 0 16 0;
#X connect 15 0 14 0;
#X connect 17 0 18 0;
#X connect 18 0 19 0;
#X connect 18 1 20 0;
#X connect 21 0 23 1;
#X connect 22 0 24 1;
#X connect 23 0 29 0;
#X connect 24 0 30 0;
#X connect 27 0 31 0;
#X connect 28 0 32 0;
#X connect 31 0 25 0;
#X connect 32 0 26 0;
#X connect 33 0 37 0;
#X connect 33 0 35 1;
#X connect 35 0 53 0;
#X connect 35 1 51 0;
#X connect 37 0 36 0;
#X connect 38 0 52 0;
#X connect 40 0 39 0;
#X connect 40 0 41 0;
#X connect 41 0 38 0;
#X connect 42 0 43 0;
#X connect 42 0 52 1;
#X connect 45 0 46 0;
#X connect 46 0 48 0;
#X connect 47 0 50 1;
#X connect 48 0 50 0;
#X connect 50 0 49 0;
#X connect 50 1 49 1;
#X connect 51 0 6 0;
#X connect 51 1 6 1;
#X connect 52 0 44 0;
#X connect 52 1 44 1;
#X connect 53 0 9 0;
#X connect 53 1 9 1;
#X connect 54 0 55 0;
#X connect 55 0 57 0;
#X connect 56 0 59 1;
#X connect 57 0 59 0;
#X connect 59 0 58 0;
#X connect 59 1 58 1;
